<svg width="14" height="14" viewBox="0 0 14 14" fill="none" xmlns="http://www.w3.org/2000/svg">
  <path d="M1.92308 2.55078C1.41328 2.55078 1 2.97605 1 3.50065V12.0495C1 12.5741 1.41328 12.9993 1.92308 12.9993H12.0769C12.5867 12.9993 13 12.5741 13 12.0495V3.50065C13 2.97605 12.5867 2.55078 12.0769 2.55078H10.2308" stroke="black" stroke-width="1.2" stroke-linecap="round" stroke-linejoin="round"/>
  <path d="M3.77013 1V4.1029" stroke="black" stroke-width="1.2" stroke-linecap="round" stroke-linejoin="round"/>
  <path d="M10.2311 1V4.1029" stroke="black" stroke-width="1.2" stroke-linecap="round" stroke-linejoin="round"/>
  <path d="M1.97049 2.53434H11.8782" stroke="black" stroke-width="1.2" stroke-linecap="round" stroke-linejoin="round"/>
  <ellipse cx="3.98498" cy="6.85775" rx="0.461538" ry="0.474934" stroke="black" stroke-width="0.923077" stroke-linecap="round" stroke-linejoin="round"/>
  <ellipse cx="7.0006" cy="6.85775" rx="0.461538" ry="0.474934" stroke="black" stroke-width="0.923077" stroke-linecap="round" stroke-linejoin="round"/>
  <ellipse cx="10.0162" cy="6.85775" rx="0.461538" ry="0.474934" stroke="black" stroke-width="0.923077" stroke-linecap="round" stroke-linejoin="round"/>
  <ellipse cx="3.98498" cy="9.70736" rx="0.461538" ry="0.474934" stroke="black" stroke-width="0.923077" stroke-linecap="round" stroke-linejoin="round"/>
  <ellipse cx="7.0006" cy="9.70736" rx="0.461538" ry="0.474934" stroke="black" stroke-width="0.923077" stroke-linecap="round" stroke-linejoin="round"/>
  <ellipse cx="10.0162" cy="9.70736" rx="0.461538" ry="0.474934" stroke="black" stroke-width="0.923077" stroke-linecap="round" stroke-linejoin="round"/>
</svg>
