<svg width="28" height="28" viewBox="0 0 28 28" fill="none" xmlns="http://www.w3.org/2000/svg">
  <rect x="0.5" y="0.5" width="27" height="27" rx="3.5" fill="white"/>
  <path d="M12.6835 7.5H15.3128C15.3886 7.5 15.4588 7.54062 15.5009 7.6125L16.034 8.5H11.9651L12.4983 7.6125C12.5404 7.54375 12.6106 7.5 12.6863 7.5H12.6835ZM17.6532 8.5L16.6233 6.77812C16.3315 6.29375 15.8404 6 15.3157 6H12.6835C12.1588 6 11.6677 6.29375 11.3759 6.77812L10.346 8.5H9.96157H8.61183H8.38734C8.01412 8.5 7.71387 8.83437 7.71387 9.25C7.71387 9.66563 8.01412 10 8.38734 10H8.71285L9.38632 20.1469C9.45647 21.1906 10.2366 22 11.1766 22H16.8225C17.7626 22 18.5427 21.1906 18.6128 20.1469L19.2863 10H19.6118C19.985 10 20.2853 9.66563 20.2853 9.25C20.2853 8.83437 19.985 8.5 19.6118 8.5H19.3873H18.0376H17.6532ZM17.9366 10L17.2687 20.0375C17.2519 20.3 17.0554 20.5 16.8197 20.5H11.1766C10.9409 20.5 10.7473 20.2969 10.7276 20.0375L10.0626 10H17.9366Z" fill="black"/>
  <rect x="0.5" y="0.5" width="27" height="27" rx="3.5" stroke="#D1D1D1"/>
</svg>
