<svg width="28" height="28" viewBox="0 0 28 28" fill="none" xmlns="http://www.w3.org/2000/svg">
  <rect x="0.5" y="0.5" width="27" height="27" rx="3.5" fill="white"/>
  <path d="M19.8877 7.73124L20.2688 8.11229C20.5648 8.40831 20.5648 8.88698 20.2688 9.17985L19.3524 10.0994L17.9006 8.64764L18.817 7.73124C19.113 7.43522 19.5917 7.43522 19.8846 7.73124H19.8877ZM12.6069 13.9445L16.833 9.7152L18.2848 11.167L14.0555 15.3931C13.9642 15.4844 13.8508 15.5506 13.728 15.5852L11.8857 16.1111L12.4117 14.2689C12.4463 14.146 12.5124 14.0327 12.6037 13.9413L12.6069 13.9445ZM17.7494 6.66368L11.5362 12.8738C11.2622 13.1478 11.0638 13.4847 10.9599 13.8532L10.0592 17.0023C9.98366 17.2668 10.0561 17.5503 10.2513 17.7455C10.4466 17.9408 10.73 18.0132 10.9945 17.9376L14.1437 17.037C14.5153 16.9299 14.8522 16.7315 15.1231 16.4607L21.3363 10.2506C22.2212 9.36564 22.2212 7.92964 21.3363 7.04473L20.9553 6.66368C20.0704 5.77877 18.6344 5.77877 17.7494 6.66368ZM8.77124 7.89185C7.24076 7.89185 6 9.13261 6 10.6631V19.2288C6 20.7592 7.24076 22 8.77124 22H17.3369C18.8674 22 20.1082 20.7592 20.1082 19.2288V15.7017C20.1082 15.2829 19.7712 14.9459 19.3524 14.9459C18.9335 14.9459 18.5966 15.2829 18.5966 15.7017V19.2288C18.5966 19.9247 18.0329 20.4884 17.3369 20.4884H8.77124C8.07528 20.4884 7.51159 19.9247 7.51159 19.2288V10.6631C7.51159 9.96713 8.07528 9.40343 8.77124 9.40343H12.2983C12.7171 9.40343 13.0541 9.06648 13.0541 8.64764C13.0541 8.2288 12.7171 7.89185 12.2983 7.89185H8.77124Z" fill="black"/>
  <rect x="0.5" y="0.5" width="27" height="27" rx="3.5" stroke="#D1D1D1"/>
</svg>

